<?xml version="1.0" encoding="utf-8"?>
<!-- Generator: Adobe Illustrator 23.0.3, SVG Export Plug-In . SVG Version: 6.00 Build 0)  -->
<svg version="1.1" id="light" xmlns="http://www.w3.org/2000/svg" xmlns:xlink="http://www.w3.org/1999/xlink" x="0px" y="0px"
	 viewBox="0 0 512 512" style="enable-background:new 0 0 512 512;" xml:space="preserve">
<style type="text/css">
	.st0{fill:#000000;}
</style>
<g>
	<path class="st0" d="M458.7,512H53.3C23.9,512,0,488.1,0,458.7V53.3C0,23.9,23.9,0,53.3,0h405.3C488.1,0,512,23.9,512,53.3v405.3
		C512,488.1,488.1,512,458.7,512z M53.3,21.3c-17.6,0-32,14.4-32,32v405.3c0,17.6,14.4,32,32,32h405.3c17.6,0,32-14.4,32-32V53.3
		c0-17.6-14.4-32-32-32H53.3z"/>
</g>
<g>
	<path class="st0" d="M352,170.7H160c-5.9,0-10.7-4.8-10.7-10.7s4.8-10.7,10.7-10.7h192c5.9,0,10.7,4.8,10.7,10.7
		S357.9,170.7,352,170.7z"/>
</g>
<g>
	<path class="st0" d="M352,266.7H160c-5.9,0-10.7-4.8-10.7-10.7s4.8-10.7,10.7-10.7h192c5.9,0,10.7,4.8,10.7,10.7
		S357.9,266.7,352,266.7z"/>
</g>
<g>
	<path class="st0" d="M352,362.7H160c-5.9,0-10.7-4.8-10.7-10.7c0-5.9,4.8-10.7,10.7-10.7h192c5.9,0,10.7,4.8,10.7,10.7
		C362.7,357.9,357.9,362.7,352,362.7z"/>
</g>
</svg>
